<svg id="Шар_1" xmlns="http://www.w3.org/2000/svg" width="328.199" height="151.344" viewBox="0 0 328.199 151.344"><style>.st0{fill:#ccc}.st1{fill:#fefefe}.st2{fill:#cc1808}.st3{fill:#f74736}</style><path class="st0" d="M221.559 0h-35.107l90.846 99.768z"/><path class="st1" d="M35.587 150.915h-5.583v-18.208l-9.832 17.291a2.433 2.433 0 0 1-1.011 1.004 3 3 0 0 1-1.397.342c-.488 0-.939-.116-1.354-.342a2.432 2.432 0 0 1-.99-1.004l-9.876-17.291v18.208H0v-28.207c0-.641.189-1.208.568-1.703a2.693 2.693 0 0 1 1.485-1.004c.298-.073.597-.095.895-.073s.582.08.858.189.532.254.757.451c.233.189.422.422.575.691l12.627 21.935 12.618-21.935a2.715 2.715 0 0 1 1.354-1.15 2.831 2.831 0 0 1 1.805-.109 2.744 2.744 0 0 1 1.47 1.004 2.69 2.69 0 0 1 .576 1.703v28.208h-.001zm36.438 0H66.48v-7.503H46.99v7.503h-5.545v-15.29c0-2.228.385-4.287 1.149-6.157.771-1.877 1.834-3.493 3.202-4.839 1.361-1.354 2.977-2.402 4.84-3.159 1.863-.75 3.894-1.128 6.098-1.128H69.23a2.775 2.775 0 0 1 1.979.808c.255.255.459.554.597.895.146.342.218.706.218 1.091v27.779zM46.99 137.866h19.49V125.88h-9.745c-.174 0-.532.029-1.077.08-.546.051-1.179.174-1.899.371-.713.197-1.47.503-2.271.917a8.199 8.199 0 0 0-2.198 1.703c-.662.728-1.215 1.638-1.652 2.722-.429 1.084-.648 2.401-.648 3.952v2.241zm61.641 10.254c0 .4-.073.771-.211 1.113a2.834 2.834 0 0 1-.59.88 2.78 2.78 0 0 1-.888.59 2.883 2.883 0 0 1-1.106.211H85.837a8.05 8.05 0 0 1-1.652-.182 7.806 7.806 0 0 1-1.746-.568 7.85 7.85 0 0 1-1.652-.989c-.532-.4-.99-.895-1.398-1.47a7.196 7.196 0 0 1-.968-2.001c-.247-.765-.364-1.623-.364-2.569v-15.013c0-.51.058-1.063.182-1.652.116-.59.305-1.172.56-1.747a7.701 7.701 0 0 1 1.004-1.652 7.031 7.031 0 0 1 1.485-1.398 7.136 7.136 0 0 1 1.994-.967c.75-.247 1.601-.364 2.554-.364h22.538v5.539H85.837c-.728 0-1.281.196-1.659.582-.386.378-.583.946-.583 1.703v14.97c0 .706.197 1.259.59 1.652.393.386.939.582 1.652.582h17.248v-6.95H88.333v-5.582h17.502c.4 0 .772.072 1.106.218.342.152.641.356.888.611s.444.554.59.881c.138.334.211.699.211 1.077v12.495h.001zm11.36 2.795h-5.546v-30.573h5.546v30.573zm33.854 0h-19.998a8.05 8.05 0 0 1-1.652-.182 7.806 7.806 0 0 1-1.746-.568 7.85 7.85 0 0 1-1.652-.989c-.532-.4-.99-.895-1.398-1.47a7.224 7.224 0 0 1-.968-2.001c-.247-.765-.364-1.623-.364-2.569v-15.013c0-.51.058-1.063.182-1.652.116-.59.305-1.172.56-1.747a7.701 7.701 0 0 1 1.004-1.652 7.031 7.031 0 0 1 1.485-1.398 7.136 7.136 0 0 1 1.994-.967c.75-.247 1.601-.364 2.554-.364h19.998v5.539h-19.998c-.728 0-1.281.196-1.659.582-.386.378-.583.946-.583 1.703v14.97c0 .706.197 1.259.59 1.652.393.386.939.582 1.652.582h19.998v5.544h.001zm55.026 0h-5.583v-18.208l-9.832 17.291a2.433 2.433 0 0 1-1.011 1.004 3 3 0 0 1-1.397.342c-.488 0-.939-.116-1.354-.342a2.432 2.432 0 0 1-.99-1.004l-9.876-17.291v18.208h-5.545v-28.207c0-.641.189-1.208.568-1.703a2.693 2.693 0 0 1 1.485-1.004c.298-.073.597-.095.895-.073.298.022.582.08.858.189s.532.254.757.451c.233.189.422.422.575.691l12.627 21.935 12.619-21.935a2.715 2.715 0 0 1 1.354-1.15 2.831 2.831 0 0 1 1.805-.109 2.744 2.744 0 0 1 1.47 1.004 2.69 2.69 0 0 1 .576 1.703v28.208zm12.021 0h-5.546v-30.573h5.546v30.573zm33.855 0h-19.998a8.05 8.05 0 0 1-1.652-.182 7.806 7.806 0 0 1-1.746-.568 7.85 7.85 0 0 1-1.652-.989c-.532-.4-.99-.895-1.398-1.47a7.196 7.196 0 0 1-.968-2.001c-.247-.765-.364-1.623-.364-2.569v-15.013c0-.51.058-1.063.182-1.652.116-.59.305-1.172.56-1.747a7.701 7.701 0 0 1 1.004-1.652 7.031 7.031 0 0 1 1.485-1.398 7.136 7.136 0 0 1 1.994-.967c.75-.247 1.601-.364 2.554-.364h19.998v5.539h-19.998c-.728 0-1.281.196-1.659.582-.385.378-.583.946-.583 1.703v14.97c0 .706.197 1.259.59 1.652.393.386.939.582 1.652.582h19.998v5.544h.001zm35.798-20.297c0 1.266-.16 2.394-.473 3.391-.313.989-.735 1.87-1.266 2.634a9.038 9.038 0 0 1-1.849 1.95 10.97 10.97 0 0 1-2.183 1.332 10.66 10.66 0 0 1-2.3.757c-.779.153-1.507.233-2.191.233l11.579 9.999h-8.566l-11.556-9.999h-3.989v-5.546h12.532a6.481 6.481 0 0 0 1.914-.437 4.844 4.844 0 0 0 1.492-.946c.415-.4.742-.88.968-1.441.225-.561.341-1.2.341-1.928v-3.501c0-.312-.036-.546-.116-.713a.858.858 0 0 0-.683-.501 3.463 3.463 0 0 0-.371-.022h-18.296v25.034h-5.545v-27.779c0-.386.072-.749.218-1.091.138-.342.334-.64.582-.895.247-.254.546-.451.888-.597a2.939 2.939 0 0 1 1.106-.211h21.047c1.237 0 2.278.226 3.129.67.859.451 1.551 1.011 2.081 1.688.532.67.917 1.398 1.15 2.184a7.48 7.48 0 0 1 .356 2.198v3.537h.001zm37.654 7.932c0 1.862-.32 3.573-.961 5.137-.641 1.565-1.528 2.911-2.663 4.047-1.142 1.143-2.489 2.023-4.047 2.656-1.55.633-3.245.953-5.079.953h-7.51c-1.834 0-3.53-.32-5.094-.953-1.565-.634-2.911-1.514-4.047-2.656-1.142-1.135-2.03-2.482-2.678-4.047-.648-1.565-.967-3.275-.967-5.137v-5.844c0-1.848.32-3.559.967-5.131.648-1.564 1.536-2.918 2.678-4.046 1.135-1.128 2.482-2.016 4.047-2.656 1.564-.641 3.26-.961 5.094-.961h7.51c1.834 0 3.529.32 5.079.961a12.42 12.42 0 0 1 4.047 2.656c1.135 1.128 2.023 2.482 2.663 4.046.641 1.572.961 3.283.961 5.131v5.844zm-5.546-5.844c0-1.092-.175-2.089-.524-2.977a6.558 6.558 0 0 0-1.471-2.278 6.52 6.52 0 0 0-2.285-1.47c-.888-.349-1.863-.525-2.926-.525h-7.51c-1.077 0-2.06.175-2.948.525a6.694 6.694 0 0 0-2.293 1.47 6.52 6.52 0 0 0-1.485 2.278c-.349.888-.524 1.884-.524 2.977v5.844c0 1.091.174 2.081.524 2.969a6.548 6.548 0 0 0 1.485 2.286 6.724 6.724 0 0 0 2.293 1.47c.888.349 1.87.524 2.948.524h7.466c1.077 0 2.059-.174 2.955-.524a6.613 6.613 0 0 0 2.286-1.47 6.562 6.562 0 0 0 1.485-2.286c.349-.888.524-1.877.524-2.969v-5.844z"/><path class="st2" d="M140.48 0h-35.107l58.097 58.807-.01-35.47z"/><path class="st3" d="M186.461 0h35.107L163.47 58.807l.011-35.47z"/><path class="st1" d="M203.294 30.03l-.008 24.492-39.758 45.116.023-28.885z"/><path class="st0" d="M203.294 30.031l-.006 24.495 54.295 44.779z"/><path class="st3" d="M105.368 0h35.107L49.629 99.768z"/><path class="st0" d="M123.763 30.03l.008 24.492 39.757 45.116-.022-28.885z"/><path class="st1" d="M123.763 30.031l.006 24.495-54.295 44.779z"/></svg>